<svg id="Layer_1" data-name="Layer 1" xmlns="http://www.w3.org/2000/svg" viewBox="0 0 495.2 425.99"><defs><style>.cls-1,.cls-3,.cls-4,.cls-5,.cls-6{fill:#0b0c15;}.cls-2,.cls-3,.cls-4,.cls-5,.cls-6{isolation:isolate;}.cls-3,.cls-4,.cls-5,.cls-6{font-size:96.93px;font-family:iCielGotham-Ultra, iCiel Gotham;}.cls-3{letter-spacing:0.08em;}.cls-4{letter-spacing:0.05em;}.cls-5{letter-spacing:0.09em;}.cls-6{letter-spacing:0.06em;}</style></defs><title>LOGO</title><g id="Layer_2" data-name="Layer 2"><g id="Layer_1-2" data-name="Layer 1-2"><path class="cls-1" d="M395,128.85a152.25,152.25,0,0,1-73.81,66.37c11.58-25.29,24.63-88.52,31.27-150.47v-.11A151.31,151.31,0,0,0,287.26,6,776.1,776.1,0,0,1,248,206.44c-3.69,10.9-7.37,20.95-10.92,30.09l-.06.15q-3.08,7.94-6,14.94C218.28,282.12,208.54,299,208.54,299a152,152,0,0,0,175.8-87.3,149.37,149.37,0,0,0,5.42-14.64l.18-.58a153,153,0,0,0,5-67.67Z"/><path class="cls-1" d="M245,0a152.74,152.74,0,0,0-31.12,3.19c-2.49.52-5,1.11-7.4,1.75a42.15,42.15,0,0,0-11.56,3.52c-6.43,65.68-19.29,143.07-35.23,174.14-.26-.33-.51-.67-.76-1q-1.11-1.5-2.19-3a152,152,0,0,1-21-132.2,151.75,151.75,0,0,0,49.17,244.69h0c.18-.31,7.86-13.73,18.4-38q2.19-5,4.53-10.68,2.9-7,6-14.91l.05-.12c3-7.82,6.13-16.3,9.26-25.4A776.55,776.55,0,0,0,263.45,1.12,151.65,151.65,0,0,0,245,0Z"/><g class="cls-2"><text class="cls-3" transform="translate(1.06 393.9)">V</text><text class="cls-4" transform="translate(83.25 393.9)">I</text><text class="cls-5" transform="translate(118.83 393.9)">C</text><text class="cls-6" transform="translate(198.02 393.9)">TR</text><text class="cls-3" transform="translate(343.89 393.9)">EX</text></g></g></g></svg>