<svg xmlns="http://www.w3.org/2000/svg" viewBox="0 0 590.27 340.91"><defs><style>.cls-1{fill:#ffbd95;}.cls-2{fill:#000012;}</style></defs><title>cabelloAsset 2</title><g id="Layer_2" data-name="Layer 2"><g id="PORTAFOLIO"><rect class="cls-1" x="90.77" y="173.59" width="408.73" height="167.33"/><path class="cls-2" d="M101.19,112.76c1.34-.26,2.14-.38,2.14-.38A8.19,8.19,0,0,0,101.19,112.76Z"/><path class="cls-2" d="M195.61,27.7a7.27,7.27,0,0,0,.69.31Z"/><path class="cls-2" d="M179.45,54.51c1.94-.88,3.18-1.36,3.18-1.36A18.08,18.08,0,0,0,179.45,54.51Z"/><path class="cls-2" d="M384.11,53.54c-14.43,5.27,4.59,2.21,4.59,2.21.87,0,15.13-1.19,27,1.35C406.17,53.82,392.69,50.42,384.11,53.54Z"/><path class="cls-2" d="M554.33,170.88a35.27,35.27,0,0,1,6,4.08A22.14,22.14,0,0,0,554.33,170.88Z"/><path class="cls-2" d="M588.45,244.47s2.72,15.85-10.41,21a18.2,18.2,0,0,1-1.89.63c7.41-4,12.15-11.06,7.55-23.68,0,0,2.72,15.85-10.42,21.06-.39.16-.79.3-1.19.43a25.8,25.8,0,0,0-.47-3c4.56-4.48,7.31-11.42,5.81-22,.3,2.5,1,12.93-6.87,18.54a19.75,19.75,0,0,0-7.7-9.21c.16.18,2.18,2.57-.72,4.9q-.92-3.9-2-7.82c3.48-5.87,6.48-13.11,6.38-20.59,0,0-1.68,10.18-7,18.46-.65-2.2-1.35-4.39-2.1-6.59,1.41-3.62,2.49-6.66,2.49-6.66a38.27,38.27,0,0,1-2.93,5.41c-.18-.51-.35-1-.53-1.52.46-6,.4-12.46-1-17.71a142.62,142.62,0,0,1,0,15.25l0-.11a23,23,0,0,0-.7-5.86,21.41,21.41,0,0,0-2.22-5.35,24.66,24.66,0,0,0-4.64-5.69q-3.21-6.17-7.07-12.13a81.28,81.28,0,0,0-.63-10.36c1.9-2.55,3.31-6.72,3.89-13.11a43.15,43.15,0,0,0-.27-10.82,35.31,35.31,0,0,1,10.52,2.9,49.53,49.53,0,0,0-10.8-4.38c-2.11-10-8.34-14.92-14.47-17.29l0-.05c13.25,2.44,24.26,14.51,35.41,26,14,14.49-9.28,21.06-9.28,21.06,10.19-.45,15.4-8.6,15.17-15.4S556.53,160.92,542.72,151c-3.92-2.83-9.33-4.52-15.08-5.5l-.32-.84c-8.1-20.86-26.73-35.27-44-44.63,6.5-1.48,17.11-8.88,22.94-6.09,6.46,3.09,21.05,28.75,21.05,28.75-18.56-42.56-23.09-34-38.71-26.26A25.18,25.18,0,0,1,481,98.72c-4.55-2.37-9-4.38-13-6.07-16.8-23.61-33-36.48-47.24-43.06-15.44-18.84-46-23.16-46-23.16,18.82,4.53,30.18,11.94,37,19.71-25.23-7.69-42.43,3.61-42.43,3.61s-2.31.87-5.1,2a18.74,18.74,0,0,0-4.83-2.22c-1.14-.2-2.39-.39-3.73-.57h-.06c-1.45,0-12.67-.3-19.33,1.62,0,0-1.59-1.1-5.32,0-.66.19,1.42-3.65,24.65-1.59-10-1.4-24.31-2.39-24.31-2.39a38.54,38.54,0,0,1-16.42,4c-3.46.08-7.28-.07-11.23-.34,28.76-29.27,69-4.05,69-4.05-21.79-18.76-53-14.32-74.29-7.89a41.73,41.73,0,0,0-.44-9.16h0S301.59,1.41,268.3.05s-25.81,24.79-25.81,24.79.78-22.54,21.74-21.73c9,.35,15.08,3.43,19,6.82-12.91-5.75-29.17-2.19-27.52-2.07,36.18,2.79,37.2,21.41,34.53,33.06l-2.22.82c1.43-9.18-5.14-19-5.14-19,7.28,15.13-8.15,24.81-8.15,24.81s-.12.21-.29.57c-1,0-2.06,0-3,0-7.24.26-12.63,2.63-20,3.34-4.26.41-9.21.13-14.11.1.15-.36.31-.75.47-1.17C242.49,38.33,264,39.45,264,39.45c-17.43-8.49-29.21,8.94-29.66,9.28,0,0-.11,1.36-.12,2.85A32.88,32.88,0,0,0,222.8,53.5C217.06,55.84,211.13,58,205,60.29c1.41-2.07,2.46-3.75,2.46-3.75-.31-1.58,6.94-17.43,23.46-16.3,0,0-11.26-1.33-20.66,4.43,7.22-5.78,19.79-9.84,34.93-9.81,26.94.06,26-10,26-10-3.17,3.63,1.13,7-33.29,3.4-17.15-1.81-29.41,6.57-37.67,15.73C191.44,35.16,221,22.7,221,22.7c-16.64,4.76-23.69,10.09-26,14.87-4.34,1.13-17.32,5-12.32,10.14,3.05,3.12,7.38,4.47,10.88,5-3.95,5.93-6.17,10.82-6.94,11.65v1s1.09.35,2.75.76c-8.91,3.41-18.12,7.2-27.6,11.85a34.07,34.07,0,0,1-1.25-7.16c4.12-4.52,12.07-12.67,19-16.31-2.06.93-4.89,2.31-7.87,4,4.55-3.34,8-5.39,8-5.39a62.33,62.33,0,0,0-19.24,10c.34-10.81,2.82-23.65,7.24-31.94C174,19,191.89,26.07,195.61,27.7c-4.69-2.33-20.19-12.88-33.27,6.2-7.29,10.64-8.4,24-7.82,34.22A62.71,62.71,0,0,0,142,85.23a47.66,47.66,0,0,1,1.92-6.5c1.34-1.3,2.28-2,2.28-2-.62.23-1.21.49-1.8.76a136.79,136.79,0,0,1,8.48-17.29,49,49,0,0,0-13.12,20.2,31.58,31.58,0,0,0-8.12,10.4,3.56,3.56,0,0,0-3.81,2.48,42.2,42.2,0,0,1,2.33-9.9,38.71,38.71,0,0,1,5.29-3.7,35,35,0,0,0-5,2.81c.34-.93.68-1.8,1-2.6,6.11-4.92,10.09-4.29,10.09-4.29s-1.7-1.7-9.4,2.72l0,0c.81-1.88,1.4-3.07,1.4-3.07-.91,1.28-1.73,2.52-2.49,3.71-7.61,4.71-17.69,14.23-13.81,20.16a13.54,13.54,0,0,1,2.17,5.74l-.93.74c.31.66.67,1.5,1,2.38a11.28,11.28,0,0,1-.75,3.14,6.45,6.45,0,0,0,1.34.14c-.11,1-.71,1.73-2.24,1.49-.61-.09-1.19-.2-1.74-.32-21.3-24.93-39.83-7.11-46.74,7.64a96,96,0,0,1,8.51-16.76h0s-22.64,8.83-24.56,24.79c-1.59,13.14,0,30.19,4,39.32l-.67,1.09-.33-.51c-6.63-9.93-7.82-21.94-7.47-31.08a10.34,10.34,0,0,1,2.54,2.53,9.77,9.77,0,0,0-2.51-3.2,71.36,71.36,0,0,1,1.84-13.42,43.66,43.66,0,0,0-3,12.77c-2.12-.84-5,.09-8.4,6.85a11.44,11.44,0,0,0-1.11,3.83c-6.95,14.27-6.22,25.89-3.06,34.55-7.19,2.08-15,7.27-20.54,19a48.7,48.7,0,0,0-3.44,10.45C6.07,215.93-.1,225.51,0,238.47c0,0,1.07-15.3,10.54-25.32a86.13,86.13,0,0,0,.25,27c-6.15,14.35-8,32,6.06,48.3.38-1.11.83-2.24,1.33-3.41a28.53,28.53,0,0,0-1.13,3.66,62.3,62.3,0,0,0,6.26,6.2,117.45,117.45,0,0,1-4.59-11.08l.47-1c-.1.16-.26.5-.48,1-2.87-8.07-5.72-19-4-27.12a76.39,76.39,0,0,0,6.83,15.66,40.06,40.06,0,0,0,1.14,10.37,40.58,40.58,0,0,1,.49-7.89,16.42,16.42,0,0,0,4.67,4.72s-1.23-5.2-2.53-12.77A23.66,23.66,0,0,1,33,256.32a143.75,143.75,0,0,0-4.66,29.38c-7.42,16.91-2.59,26.78,1.79,31.73a5.9,5.9,0,0,1-1.27-.69l-.08-.05a35.69,35.69,0,0,1-6.2-5.68c-6.43-11.48-2.36-18.93-2.36-18.93-3.46,3.68-2.66,9.37-.74,14.51a24.56,24.56,0,0,1-2.41-17.85l-.2-.25c-3.33,9.45-2.75,16.92-.34,22.75a19.78,19.78,0,0,0,3.71,10c-10.37-13.2-7-31.87-7-31.87-6.81,32,9.58,40.49,16,42.53.17,1.53.33,2.95.49,4.23-1.41,1.24-2.84,2.91-3,4.69a45.2,45.2,0,0,1,3-4.34c.65,5.2.58,4.34.58,4.34h73.24l2.08-21.15,2.55-10c1.5,8.87,1.21,14.69.63,18.13,2.49-10.35,4.11-27.37,5-39.73,3.3-10,9.5-22.43,17.73-29.17,24.07-7.94,45.3-22,58.9-32.49q3.3-1.5,6.76-2.88c-19.53,27-52.54,44.69-52.54,44.69,33.29-13.48,49.58-31.85,57.56-46.54l1-.35c-.4,6-1.2,11.85-3.22,16.77-6.72,16.32-26.15,14.95-26.15,14.95a28,28,0,0,0,19.31-2.3,39.4,39.4,0,0,1-17.88,13,78.68,78.68,0,0,0,12.49-4.63c5.4-2.52,9.49-7.71,12.58-14a18,18,0,0,0,4.4-11.49s0-.06,0-.09a121.87,121.87,0,0,0,3.11-13.72,14.19,14.19,0,0,1,2.07-.34c1.06,19,10.67,22,10.67,22-6.35-8-8.22-15.66-8-22.24,2.48-.21,4.85-.64,6.44-2.86,2.69-3.78,7.32-2.29,10.91-3.41,9.49-3,17.78,4.17,34,2.93,4.27-1.11,8.39-2.39,12.44-3.73-15.25,25.2-44.14,26.2-44.14,26.2,19.15-.22,32.84-10.25,41.85-20.51C258.8,238.44,228,243.79,228,243.79c30-3.56,44.89-18.55,52.32-32.84,3.23-1.1,6.42-2.21,9.63-3.28,2.65,7.34,4.47,13.19,4.47,13.19-.59-5.28-1.33-9.91-2.13-14,4.32-1.41,8.67-2.71,13.14-3.78,4.65,3,10.21,5.57,16.21,6.06-9.51,10.84-24.08,20.55-24.08,20.55,6.22-.8,17.61-11.64,26-20.47.49,0,1,0,1.46,0,0,0-.47-.06-1.25-.2l.67-.71c7.34,3.06,13.79,5.45,10.6,2.89-.85-.68-13.59-3.57-6.62-5.43s13.07,6.79,8.49,8.15c0,0,3.73-.34,4.24-3.06,0,0,14.14,3.08,25.44-1.22a44.87,44.87,0,0,0,10.85,31.5,41.35,41.35,0,0,0,6.29,6,13.92,13.92,0,0,1-5,1.79c-18.47,2.43-19.38-11.76-19.83-14.4,0,0-.45,14.92,7.92,18,3.87,1.43,11.07,2,19.51-3.62a36.85,36.85,0,0,0,12.5,5.17,12.87,12.87,0,0,0,.18,3.76c2.86,12.94,14.39,5.41,17.8,2.85,2.92,11.45,9.88,21.29,24.05,25.49,42.38,12.56,42.91,17.66,44.32,24A32.71,32.71,0,0,1,478,322.56s7.45-3,12.2-18.28l1.31,36.58h67.85c1.18-1.15-.34.84.76-1.52a21.18,21.18,0,0,0,12.49-15.86c-1.25,4.85-6.72,9.16-10.88,11.83.5-1.45,1-3,1.44-4.73.82-.78,1.67-1.67,2.57-2.68a22.47,22.47,0,0,0,2.64-3.58c5.94-7.19-.94-14.76-.94-14.76a22.54,22.54,0,0,1,1.58,4.73,11.59,11.59,0,0,0-2.58-3c.17-1.79.31-3.63.41-5.51a35.73,35.73,0,0,0,10.94-28.34c5-3.21,6.86-6.31,6.86-6.31a19.3,19.3,0,0,1-7.12,3.75,35.09,35.09,0,0,0-1-4.78C586.21,266.65,593.91,259.46,588.45,244.47ZM123.91,99.65c-2.74-4.56,1-9.81,1-9.81A11.08,11.08,0,0,0,122,94.55a23.36,23.36,0,0,1,5-8.31C124.2,92.67,123.84,97.24,123.91,99.65Zm-2.59-2.31c0-.18.06-.37.1-.56C121.38,97,121.35,97.16,121.32,97.34Zm.12-.65a18.69,18.69,0,0,1,.57-2.07A20.64,20.64,0,0,0,121.44,96.69ZM194.73,38a9.16,9.16,0,0,0,.21,7.7l-4.45-.54S180.71,45.33,194.73,38ZM155,73.83c.34,2.84.77,5.22,1.13,7q-3.76,2-7.59,4.15a38.46,38.46,0,0,0,2-3.94A34.83,34.83,0,0,1,155,73.83ZM142.76,88.37l-1.25.77a17.85,17.85,0,0,1,.19-2.44A5.19,5.19,0,0,0,142.76,88.37Zm-4.57-2.78A57.08,57.08,0,0,0,137.06,92l-2.28,1.51A23.75,23.75,0,0,1,138.19,85.59Zm-6.68,5.33c-.48,1-.9,1.87-1.27,2.73h0c-.22.52-.39-1-.39-1,.07,1.21-1.72,3.27-1.72,3.27C127.61,91.94,130.07,91.09,131.51,90.92Zm-2.69,6.29q-.1.3-.21.57l-.59.43c0-.19-.06-.37-.09-.57a1.13,1.13,0,0,1,0-.18A1.76,1.76,0,0,0,128.82,97.21Zm.58-15.6c-.49.87-.94,1.71-1.34,2.52a41.37,41.37,0,0,0-4.22,3.7c.7-.87,1.49-1.82,2.39-2.87A45.8,45.8,0,0,1,129.4,81.61Zm-18,29.72q-2,1.69-4.1,3.45a33.4,33.4,0,0,0-9.54-.48,16.38,16.38,0,0,1,3.39-1.54,80.75,80.75,0,0,0-11.11,3c-1.42.41-2.75.87-4,1.34C94.38,107.83,105,109.21,111.44,111.33Zm-86.09,106c1.45-3.3,3.54-5.72,6.41-6.84A84.42,84.42,0,0,0,25.35,217.28ZM47.1,186.61a20.09,20.09,0,0,1-4-3.09c2.26.11,4.07.38,5.13.5C47.88,184.88,47.49,185.74,47.1,186.61Zm7.53-57.33c.77-2.84-1.74-8.77,14.93-20.63-16,14.79-13.56,45.52-12.1,56.51A79.48,79.48,0,0,1,54.63,129.28ZM40.25,146.94c0-5.61,3.39-7.47,5.6-9.85a1.84,1.84,0,0,1,1.72-.64c-1,16.36,6.58,30.29,8.3,33.19-.47.79-.93,1.59-1.39,2.38C38.72,154.86,40.25,152.28,40.25,146.94Zm-2.17-.28c-.75,9.62,9.51,20.93,15.62,26.76q-1.85,3.32-3.54,6.7l-1.07-.18a35.19,35.19,0,0,0-8.86-.15C33.1,168.13,37.14,150.32,38.08,146.66Zm-1.75,37.23c.43.92.88,1.8,1.34,2.64C31.46,187.94,26.78,192,23.28,197a40.27,40.27,0,0,1,15.33-8.87c.25.39.49.78.74,1.15-7.45,2.35-13.54,7.16-17.39,10.86a11.76,11.76,0,0,0-2.51,3.5l-.12.26c-1.13.32-2,.6-2,.6s-.76.54-2,1.58C19.25,190.15,28.47,185.19,36.33,183.89ZM13.47,224a81.82,81.82,0,0,1,1.15-14.39,26.1,26.1,0,0,1,2.7-1.68l.4-.21A75.94,75.94,0,0,0,13.47,224Zm10.87,37c-.66-4.5-1.27-9.47-1.64-14.5a15.79,15.79,0,0,1,2.89-.86,8,8,0,0,1,4.84.4c-.19,1.29-.37,2.56-.54,3.84a8.66,8.66,0,0,1,2.84,2.09A24,24,0,0,0,24.34,261ZM29,288.22a10.14,10.14,0,0,1,2.62-3.11,44.31,44.31,0,0,0-3.37,11.17c.07,1.8.18,3.49.32,5.08a91.79,91.79,0,0,0,1.36,9.93C25.92,304.49,26.87,295.64,29,288.22Zm-3.07,34.95a17.57,17.57,0,0,0,2.89,4.9l.06.65c-.28-.16-.58-.32-.86-.49a48.11,48.11,0,0,1-5.43-8A36,36,0,0,0,25.92,323.17Zm49.85-179.9c.15-.9.3-1.77.46-2.63-.08,1.55.15,1.87.44,1.69Zm6.08-6c-1.67,1.53-3.29,3.11-4.86,4.71a8.74,8.74,0,0,0,.78-1.42s0-.4,0-1c1.18-.27.42-1.9.42-1.9C85.07,120.23,98.69,119,98.69,119,88.2,118.25,81,130,78,136a7.75,7.75,0,0,1,.91-3.24,20,20,0,0,0-1.84,3.84c.3-1.24.61-2.43.94-3.56a130.11,130.11,0,0,1,13.3-13.95,52.87,52.87,0,0,1,12.9-1.68Q93.28,126.8,81.85,137.31ZM552,241.88l-.43.1c0-.22,0-.43,0-.65a22.05,22.05,0,0,0-.23-5.58c0-1.06,0-2.29,0-3.58s0-3.1,0-4.87a33,33,0,0,1,1.92,8.73A24.12,24.12,0,0,1,552,241.88ZM567,276l-1,0c-.13-1.15-.26-2.32-.41-3.49.82-.1,1.65-.21,2.5-.35A30.53,30.53,0,0,1,567,276Zm1.44-11.26c-.8.11-1.61.17-2.41.2v-.09a24.63,24.63,0,0,0,2.22-1.29C568.33,264,568.4,264.38,568.45,264.77Zm-1.5-5.32h0c-.37.15-.75.28-1.12.41-.16-1.87-.35-3.08-.35-3.08A19.64,19.64,0,0,1,567,259.45Zm-32.57-70.36a14.15,14.15,0,0,1-7.55-.09c3.32-1.59,3.44-8.38,3.44-8.38-1.16,4.5-3.25,6.17-5.16,6.66a11.49,11.49,0,0,0,1.3-3.78,9.48,9.48,0,0,0,2.84-8.54,9.17,9.17,0,0,1-2.74,7.1,2.49,2.49,0,0,1-.19-.3l-.33-.55a15.5,15.5,0,0,0,.6-3,14.89,14.89,0,0,0,.08-1.53,10.71,10.71,0,0,1-.35,1.09,9.09,9.09,0,0,1-1.13,2.13c-2.09-3.49-4-7.06-5.7-10.71,2-.31,6.31-1.07,11.52-1.44a141.48,141.48,0,0,1,3.92,21.18ZM518,165.94q-2.25-5.1-4.1-10.36c-.08-.23-.18-.45-.26-.68a20.86,20.86,0,0,1,13.61.93c1.1,3,2.06,6,2.89,8.84A56.79,56.79,0,0,0,518,165.94Zm-5.59-14.12c-.08-.18-.15-.37-.23-.55s-.11-.23-.16-.34q2.44-.69,5.4-1.37a40.46,40.46,0,0,1,8.18,2c.34.85.68,1.69,1,2.53A32.48,32.48,0,0,0,512.44,151.82Zm28.39,28.79a15.13,15.13,0,0,1-1.64,4.53,174.24,174.24,0,0,0-4.1-17.6c1.89,0,3.85,0,5.83.15A30,30,0,0,1,540.83,180.61Zm-.48-14.88-.88-.17-1.85-2.07c-.32-.36-.65-.7-1-1a11.1,11.1,0,0,1,.55,1l1.84,2c-1.51-.27-3.09-.47-4.73-.61-.59-2-1.23-4-1.93-6.13a32,32,0,0,1,4.27,3.72,19.56,19.56,0,0,0-4.79-5.32c-.35-1-.7-2-1.07-3.11A21.51,21.51,0,0,1,540.35,165.73Zm-19.19-23.9C517.72,137.06,509.9,130,501.57,123c-7-10.27-14.22-11.39-14.22-11.39-5.44-4.22-10-7.62-12.28-9.3a14.91,14.91,0,0,1,6.12-2.07C500.67,110.78,513.15,126.29,521.16,141.83ZM408.79,238.49a15.85,15.85,0,0,0,6.33,2.35,79.9,79.9,0,0,0,0,8.19,92.46,92.46,0,0,0-8.15-6.52C407.5,241.21,408.11,239.87,408.79,238.49Zm6.41.87a25,25,0,0,1-6-1.74,93.43,93.43,0,0,1,7.1-11.67l.54.33A115.18,115.18,0,0,0,415.2,239.36ZM456.06,93.14c1.82.4,3.59.8,5.29,1.2.52.66,1,1.3,1.47,1.9A51.47,51.47,0,0,1,456.06,93.14ZM467,97.59c-.5-.75-1-1.51-1.48-2.24l3.4.87c.49.7,1,1.43,1.46,2.14C469.18,98.14,468.05,97.88,467,97.59Zm-.29-.09c-1.12-.31-2.2-.66-3.21-1-.43-.66-.87-1.31-1.31-2l2.85.7C465.62,96,466.17,96.8,466.68,97.5Zm-8.5-8.58A147.76,147.76,0,0,0,444,72.21a152.54,152.54,0,0,1,16.83,17.64Zm-1.84-.64c-5.63-1.89-9.17-2.76-9.17-2.76a45.45,45.45,0,0,0-5.27,1.23c-4.56-1.35-8.92-2-13.39-3.42,0-.18.06-.34.1-.52A42.59,42.59,0,0,0,427.85,63C439.56,70.45,449.4,80.27,456.34,88.28Zm-1.49,4.61,0,.13-.24-.17Zm12.62,17.48a20.22,20.22,0,0,0-1.76-3.48c.18,0,.36-.08.55-.13l.38.67s1.36,4.25,1.44,4.65C468,112,467.84,111.45,467.47,110.37Zm2.92-12c-.4-.59-.89-1.31-1.48-2.14l1.86.49c.43.64.87,1.27,1.3,1.93C471.51,98.57,471,98.47,470.39,98.37Zm-8.46-8.1c-10-13.83-19.86-23.56-29.21-30.25,14.66,9.62,26.25,23,32.85,31.66C464.31,91.18,463.09,90.71,461.93,90.27Zm-90.7-35.5a51.8,51.8,0,0,1,7-2,111.78,111.78,0,0,1,11.67-1.24c10.17-.59,19.89,2,28.79,6.27-1-.27-2-.52-3-.73,1.19.41,2.32.81,3.37,1.21a38,38,0,0,1,2.46,14.8,31.47,31.47,0,0,0-6-7.68c3.57,4.07,3.14,10,3.48,10.78,0,0,.83,1.86,1.84,3.85-9.82-5.56-20.71-17.12-29.75-20C384.38,57.94,377.78,56.24,371.23,54.77ZM405,219.84a133,133,0,0,1-8.25,13.94c-3.4-4.21-5.62-9.87-6.08-19.7A151.45,151.45,0,0,1,405,219.84Zm2.81,1.36q3,1.52,6,3.22C411.09,228,408.36,232,406,236l-.29-.16.23.26q-1.2,2-2.26,4a49.56,49.56,0,0,1-4.7-3.89A101.07,101.07,0,0,0,407.76,221.2Zm-1.58,23.21c4.13,2.66,7,4.56,9,5.89,0,.6.09,1.19.15,1.79a39.11,39.11,0,0,1-9.58,1.43c-.73,0-1.44,0-2.15,0A49.69,49.69,0,0,1,406.18,244.41Zm14.76-3.7.21-.05a27.57,27.57,0,0,0-.65,9.58l-.84.36A22,22,0,0,1,420.94,240.71Zm.61-1.43.09-.21a2,2,0,0,0-.07.21Zm6.86-4.41,1.08,1c-.5.35-1,.68-1.55,1C428.1,236.2,428.25,235.53,428.41,234.87ZM472.07,98.65s-.45-.72-1.26-1.91c4,1.07,6.81,1.92,7.76,2.21A33.28,33.28,0,0,1,472.07,98.65Zm-4.14-6c-.77-.32-1.52-.63-2.26-.92C452.32,73.53,439.39,62,427.54,55,446.47,65.53,461.13,83.37,467.93,92.65ZM322.09,208.71c-3.81-.83-10.3-2.72-13-6.4l1-.2c2.55,1.14,7.72,3.45,12.77,5.59Zm53.31,26.57c-4-5-6.84-17.17-7.1-26.34.6-.28,1.18-.58,1.75-.9,5.6,1.4,11.57,3,17.62,5,1,7,3.22,15.46,8,22.14a46.88,46.88,0,0,1-10,10.69A68.75,68.75,0,0,1,375.4,235.28ZM388,247.7a50.88,50.88,0,0,0,9.73-9.9,26.69,26.69,0,0,0,4.87,4.29,38.48,38.48,0,0,0-3.69,10.69A32.22,32.22,0,0,1,388,247.7ZM403.25,260a21,21,0,0,1,.15-5.23,34,34,0,0,0,12.06-1.27,55,55,0,0,0,1.27,7C413.57,262.15,404,266.57,403.25,260Zm82,49.84c-.45-3.8-3.71-14.86-26-20.47-21.08-5.31-37.39-22-39.55-37.49l.85-.42a30.63,30.63,0,0,0,8.64,16.86c13.62,14.16,16.48,14.09,16.48,14.09s-20.27-14.77-20.58-26.49a47.86,47.86,0,0,1,.6-7.68,28.47,28.47,0,0,0,3.5-3.19,28.53,28.53,0,0,1-3.39,2.42c.43-2.83,1-5.91,1.71-9,.93-.46,1.88-1,2.87-1.61a64.12,64.12,0,0,1,9.43,11.4h0c.47,6.44,3.21,13.82,10.28,21.58,10.8,11.74,23.93,16,26.88,16.42,2.67.43-11.22-2.32-19.41-17.51A34.19,34.19,0,0,0,470,280.11,26.77,26.77,0,0,1,467,277.5a29.68,29.68,0,0,0,5.4,3.4s-4.3-3.45-4.19-8.43c0,0,6.11,13.75,15,14.88,0,0-12.23-3.39-13.7-23.2,0,0,4.47,15.79,15.63,21.28a103.18,103.18,0,0,1-10.66-17.36c5.23,6.58,10.37,13.88,13.26,20.32C488,295,487.59,302.7,485.29,309.8Zm.07-183.68h0s4.28-3.8,12.14,3.32c-.58-.65-1.19-1.3-1.8-1.94s-1.16-1.19-1.74-1.78A25,25,0,0,1,496.5,127c-1.05-.68-2.06-1.26-3-1.78-1.39-1.4-2.82-2.79-4.27-4.15,2,.16,4.79,1.17,8.26,4.31a39.1,39.1,0,0,1,3.25,3.35,26.91,26.91,0,0,0-5-5.29,12.52,12.52,0,0,0-7.1-3c-1.87-1.73-3.77-3.44-5.7-5.1,4.1.37,10.15,4,16.31,8.49,6.45,8.36,11.28,20.15,11.28,20.15a74.39,74.39,0,0,0-5.87-16c8.24,6.64,15.62,13.73,17.47,15.53.2.39.39.79.58,1.18a114.1,114.1,0,0,0-14-.5,81.45,81.45,0,0,0-4.84-7.24l-.39-.53a34.67,34.67,0,0,0-6.88-5.46A35.44,35.44,0,0,0,485.36,126.12ZM521.51,190a40,40,0,0,0,4,2.67,37.91,37.91,0,0,1-6.14-2.54A7.35,7.35,0,0,0,521.51,190Zm45.23,132.42a8.68,8.68,0,0,1-2,1.16c.64-3.41,1.18-7.12,1.58-11.1C568.42,315.72,568.12,319.19,566.74,322.39Zm-5.94-18,.48-2.29c.33-3.89,4.55-9.52,5.74-11,0-1.13-.07-2.28-.12-3.43.87-1.94,1.74-4.07,2.52-6.32A39.53,39.53,0,0,0,576.8,278C575.83,292.83,564.36,302.23,560.8,304.43ZM576.85,275A30,30,0,0,1,571,276a44,44,0,0,0,.87-4.55,42,42,0,0,0,4.45-1.28A32.86,32.86,0,0,1,576.85,275Z"/><path class="cls-2" d="M577.43,239c0-.35-.07-.55-.07-.55C577.39,238.59,577.41,238.77,577.43,239Z"/><path class="cls-2" d="M572.57,323.48a7.67,7.67,0,0,0,.26-2.38A15,15,0,0,1,572.57,323.48Z"/><path class="cls-2" d="M355.71,45h0Z"/><path class="cls-2" d="M507.14,137a37.24,37.24,0,0,0-3.76-4.46A34.67,34.67,0,0,0,496.5,127a41.12,41.12,0,0,1,7.27,6A41.61,41.61,0,0,1,507.14,137Z"/><path class="cls-2" d="M175.34,263.8A62.43,62.43,0,0,1,162.18,266,40.32,40.32,0,0,0,175.34,263.8Z"/><path class="cls-2" d="M153.53,265.62a35.59,35.59,0,0,0,8.65.39C157.18,266.05,153.8,265.27,153.53,265.62Z"/><path class="cls-2" d="M108.82,327.81c-.37,1.54-.75,2.92-1.16,4.12A14.32,14.32,0,0,0,108.82,327.81Z"/></g></g></svg>